PathFileType	4	(X/Y/Z)	RBDS001static.trc
DataRate	CameraRate	NumFrames	NumMarkers	Units	OrigDataRate	OrigDataStartFrame	OrigNumFrames
150.000000	150.000000	4	48	mm	150.000000	18	150
Frame#	Time	L.Ankle			L.Ankle.Medial			L.ASIS			L.GTR			L.Heel.Bottom			L.Heel.Lateral			L.Heel.Top			L.HF			L.Iliac.Crest			L.Knee			L.Knee.Medial			L.MT1			L.MT2			L.MT5			L.PSIS			L.Shank.Bottom.Lateral			L.Shank.Bottom.Medial			L.Shank.Top.Lateral			L.Shank.Top.Medial			L.Thigh.Bottom.Lateral			L.Thigh.Bottom.Medial			L.Thigh.Top.Lateral			L.Thigh.Top.Medial			L.TT			R.Ankle			R.Ankle.Medial			R.ASIS			R.GTR			R.Heel.Bottom			R.Heel.Lateral			R.Heel.Top			R.HF			R.Iliac.Crest			R.Knee			R.Knee.Medial			R.MT1			R.MT2			R.MT5			R.PSIS			R.Shank.Bottom.Lateral			R.Shank.Bottom.Medial			R.Shank.Top.Lateral			R.Shank.Top.Medial			R.Thigh.Bottom.Lateral			R.Thigh.Bottom.Medial			R.Thigh.Top.Lateral			R.Thigh.Top.Medial			R.TT			
		X1	Y1	Z1	X2	Y2	Z2	X3	Y3	Z3	X4	Y4	Z4	X5	Y5	Z5	X6	Y6	Z6	X7	Y7	Z7	X8	Y8	Z8	X9	Y9	Z9	X10	Y10	Z10	X11	Y11	Z11	X12	Y12	Z12	X13	Y13	Z13	X14	Y14	Z14	X15	Y15	Z15	X16	Y16	Z16	X17	Y17	Z17	X18	Y18	Z18	X19	Y19	Z19	X20	Y20	Z20	X21	Y21	Z21	X22	Y22	Z22	X23	Y23	Z23	X24	Y24	Z24	X25	Y25	Z25	X26	Y26	Z26	X27	Y27	Z27	X28	Y28	Z28	X29	Y29	Z29	X30	Y30	Z30	X31	Y31	Z31	X32	Y32	Z32	X33	Y33	Z33	X34	Y34	Z34	X35	Y35	Z35	X36	Y36	Z36	X37	Y37	Z37	X38	Y38	Z38	X39	Y39	Z39	X40	Y40	Z40	X41	Y41	Z41	X42	Y42	Z42	X43	Y43	Z43	X44	Y44	Z44	X45	Y45	Z45	X46	Y46	Z46	X47	Y47	Z47	X48	Y48	Z48	

19	0.12	705.0795288085938	108.777458190918	1050.911254882813	725.5661010742188	119.2756423950195	1129.011840820313	877.331298828125	1067.391235351563	1126.5732421875	799.9777221679688	965.5277099609375	1056.4150390625	633.3126220703125	43.02642440795898	1085.115112304688	663.4314575195313	60.36971282958984	1046.796264648438	641.8226318359375	90.52165222167969	1088.8359375	734.5899047851563	490.4732666015625	1039.654052734375	816.1583862304688	1135.260009765625	1089.718627929688	752.1822509765625	550.5374145507813	1051.919677734375	732.2594604492188	539.8500366210938	1161.908935546875	854.9591674804688	62.81820297241211	1133.4736328125	861.0534057617188	69.67829132080078	1088.632934570313	827.117431640625	56.57523345947266	1026.679931640625	699.4189453125	1098.95703125	1180.964233398438	713.4869995117188	191.5824432373047	1043.448120117188	670.51416015625	190.6914215087891	1071.818969726563	708.9362182617188	271.3804321289063	1031.268432617188	665.5877685546875	274.7526245117188	1063.087524414063	743.3453369140625	675.5410766601563	1042.844116210938	690.15234375	678.187255859375	1093.33447265625	741.134521484375	786.1983032226563	1039.892578125	696.1746215820313	788.8618774414063	1092.639404296875	786.12109375	461.6100463867188	1091.666381835938	702.0075073242188	110.4653396606445	1397.320434570313	720.03857421875	116.6211700439453	1314.716430664063	855.1936645507813	1060.744750976563	1337.036743164063	761.2493286132813	966.6450805664063	1384.38330078125	627.5104370117188	42.55357360839844	1360.095581054688	658.3750610351563	58.93166732788086	1403.282104492188	638.9170532226563	90.72335815429688	1359.62841796875	731.1410522460938	491.5689086914063	1397.410034179688	791.8983764648438	1135.5859375	1358.392211914063	733.9430541992188	553.3071899414063	1386.705200195313	730.7501831054688	540.025634765625	1270.511108398438	850.2017822265625	64.4169921875	1319.665771484375	855.0895385742188	73.175048828125	1362.046630859375	829.7251586914063	56.37880325317383	1427.126586914063	695.4871826171875	1097.76513671875	1257.692504882813	702.0076904296875	190.5165252685547	1400.698486328125	660.6809692382813	194.1901397705078	1364.699584960938	698.2205810546875	271.2764587402344	1410.57470703125	658.5748291015625	273.8160095214844	1373.509643554688	733.4110717773438	651.2188720703125	1396.230224609375	679.3448486328125	650.4099731445313	1345.372680664063	725.3569946289063	761.8101806640625	1398.542602539063	676.9459228515625	760.419921875	1347.703125	780.634765625	462.6824951171875	1343.612060546875	
20	0.1266666666666667	705.0772705078125	108.7830200195313	1050.909057617188	725.5650024414063	119.2821502685547	1129.007568359375	877.3470458984375	1067.392944335938	1126.574340820313	799.9921264648438	965.5263671875	1056.403686523438	633.3108520507813	43.02655792236328	1085.114379882813	663.4408569335938	60.36880493164063	1046.7939453125	641.8225708007813	90.51986694335938	1088.841430664063	734.5828247070313	490.4683532714844	1039.648315429688	816.2048950195313	1135.278564453125	1089.73046875	752.1813354492188	550.5368041992188	1051.916259765625	732.2745361328125	539.8609619140625	1161.900390625	854.9641723632813	62.81409072875977	1133.454833984375	861.0612182617188	69.67621612548828	1088.631469726563	827.1220703125	56.57070159912109	1026.666381835938	699.4464111328125	1098.9609375	1180.961303710938	713.4745483398438	191.5825042724609	1043.456665039063	670.5137939453125	190.6915130615234	1071.81591796875	708.922607421875	271.3866882324219	1031.268920898438	665.586669921875	274.7474365234375	1063.09912109375	743.35302734375	675.5389404296875	1042.838134765625	690.154296875	678.1934204101563	1093.342529296875	741.148193359375	786.1974487304688	1039.88525390625	696.1830444335938	788.8583984375	1092.643432617188	786.1303100585938	461.6204528808594	1091.664184570313	702.010986328125	110.4701156616211	1397.324951171875	720.0303344726563	116.6149978637695	1314.723266601563	855.2251586914063	1060.73291015625	1337.027099609375	761.2786254882813	966.6380615234375	1384.392211914063	627.5203857421875	42.549072265625	1360.09814453125	658.3743286132813	58.93574905395508	1403.2880859375	638.9170532226563	90.72054290771484	1359.629638671875	731.1328735351563	491.5518493652344	1397.407104492188	791.9449462890625	1135.591186523438	1358.387939453125	733.9473266601563	553.3153686523438	1386.705932617188	730.7550048828125	540.019775390625	1270.513916015625	850.2030639648438	64.41998291015625	1319.667724609375	855.0963745117188	73.17605590820313	1362.050659179688	829.7194213867188	56.38321685791016	1427.133544921875	695.5224609375	1097.771850585938	1257.698852539063	702.0084838867188	190.5253448486328	1400.696655273438	660.6761474609375	194.1777648925781	1364.697021484375	698.2307739257813	271.2810974121094	1410.576416015625	658.5804443359375	273.8090209960938	1373.509643554688	733.4197998046875	651.2188720703125	1396.220703125	679.354248046875	650.4077758789063	1345.379150390625	725.3726196289063	761.8140258789063	1398.532104492188	676.9666137695313	760.4190673828125	1347.697875976563	780.6427612304688	462.6806030273438	1343.613037109375	
21	0.1333333333333333	705.0798950195313	108.780403137207	1050.914794921875	725.5681762695313	119.2721405029297	1129.006591796875	877.369873046875	1067.394165039063	1126.57470703125	800.007568359375	965.5314331054688	1056.401000976563	633.3134155273438	43.03029632568359	1085.110595703125	663.4346923828125	60.36704635620117	1046.799560546875	641.824462890625	90.51761627197266	1088.848999023438	734.5838623046875	490.4642944335938	1039.651733398438	816.2383422851563	1135.288818359375	1089.740112304688	752.186767578125	550.5364379882813	1051.908813476563	732.2887573242188	539.8658447265625	1161.899169921875	854.9589233398438	62.81044006347656	1133.459716796875	861.0599975585938	69.68074035644531	1088.635375976563	827.1180419921875	56.56873321533203	1026.665893554688	699.4713745117188	1098.964599609375	1180.946533203125	713.4747924804688	191.5790405273438	1043.453247070313	670.5112915039063	190.6961059570313	1071.828369140625	708.9257202148438	271.3904418945313	1031.280639648438	665.5988159179688	274.7269897460938	1063.091918945313	743.3511962890625	675.5520629882813	1042.83837890625	690.1610107421875	678.1993408203125	1093.336669921875	741.153076171875	786.2073974609375	1039.87646484375	696.189208984375	788.86669921875	1092.635620117188	786.123779296875	461.6121520996094	1091.659912109375	702.0059204101563	110.4688949584961	1397.327514648438	720.0398559570313	116.6188812255859	1314.713012695313	855.2595825195313	1060.72802734375	1337.012451171875	761.317626953125	966.64111328125	1384.379272460938	627.5172119140625	42.55250549316406	1360.093872070313	658.37353515625	58.93645858764648	1403.293212890625	638.92626953125	90.72211456298828	1359.633544921875	731.1484985351563	491.5670776367188	1397.404174804688	792.01123046875	1135.598876953125	1358.39892578125	733.9575805664063	553.3030395507813	1386.696166992188	730.7538452148438	540.0289306640625	1270.505737304688	850.2057495117188	64.41767883300781	1319.66357421875	855.0955200195313	73.17598724365234	1362.042846679688	829.724609375	56.38308334350586	1427.12744140625	695.5621337890625	1097.770874023438	1257.70751953125	702.0020141601563	190.5230712890625	1400.69580078125	660.6799926757813	194.1858367919922	1364.702880859375	698.2300415039063	271.2738037109375	1410.570190429688	658.5849609375	273.8092041015625	1373.504028320313	733.439453125	651.2229614257813	1396.227172851563	679.36474609375	650.4124145507813	1345.371826171875	725.3932495117188	761.8148193359375	1398.526000976563	676.9841918945313	760.4227905273438	1347.6953125	780.64453125	462.6762390136719	1343.608032226563	
22	0.14	705.0792846679688	108.7721786499023	1050.916015625	725.5657958984375	119.2778549194336	1128.996948242188	877.3995361328125	1067.398681640625	1126.570556640625	800.0198364257813	965.5310668945313	1056.395874023438	633.316650390625	43.02451705932617	1085.115844726563	663.4425659179688	60.36759948730469	1046.791259765625	641.8331298828125	90.52478790283203	1088.845336914063	734.5765380859375	490.4693603515625	1039.64453125	816.2646484375	1135.292724609375	1089.73779296875	752.1753540039063	550.5302734375	1051.90869140625	732.2783203125	539.8603515625	1161.89990234375	854.9694213867188	62.80974578857422	1133.448364257813	861.0606079101563	69.67217254638672	1088.626708984375	827.123779296875	56.57212829589844	1026.66748046875	699.4932250976563	1098.975219726563	1180.9599609375	713.4757690429688	191.5868225097656	1043.450073242188	670.5151977539063	190.6920166015625	1071.826293945313	708.9107666015625	271.3893432617188	1031.272216796875	665.5945434570313	274.7290344238281	1063.10400390625	743.3562622070313	675.5512084960938	1042.835815429688	690.16015625	678.20263671875	1093.335083007813	741.1538696289063	786.2144165039063	1039.874145507813	696.1936645507813	788.8698120117188	1092.638916015625	786.124267578125	461.617431640625	1091.655029296875	701.71435546875	110.6255111694336	1397.561157226563	720.0353393554688	116.6191711425781	1314.709228515625	855.2959594726563	1060.719482421875	1336.994873046875	761.344482421875	966.6484985351563	1384.383666992188	627.5138549804688	42.55154418945313	1360.099609375	658.375244140625	58.92824172973633	1403.284912109375	638.9223022460938	90.71942901611328	1359.62890625	731.15869140625	491.5571899414063	1397.398315429688	792.0631103515625	1135.601318359375	1358.391479492188	733.9600830078125	553.2997436523438	1386.694213867188	730.7633666992188	540.0218505859375	1270.5009765625	850.2012329101563	64.41953277587891	1319.660766601563	855.093505859375	73.17121887207031	1362.041748046875	829.7256469726563	56.38156509399414	1427.125854492188	695.5880126953125	1097.774536132813	1257.697143554688	702.00634765625	190.523193359375	1400.69921875	660.6807250976563	194.1810150146484	1364.701782226563	698.2279663085938	271.2763061523438	1410.563354492188	658.580322265625	273.8166809082031	1373.50439453125	733.4505004882813	651.21728515625	1396.21875	679.3772583007813	650.4139404296875	1345.375732421875	725.4122314453125	761.8070068359375	1398.529418945313	677.0020141601563	760.4266357421875	1347.70703125	780.6585083007813	462.6760864257813	1343.593627929688	
